<?xml version="1.0" standalone="no"?>
<!DOCTYPE svg PUBLIC "-//W3C//DTD SVG 20010904//EN"
 "http://www.w3.org/TR/2001/REC-SVG-20010904/DTD/svg10.dtd">
<svg version="1.0" xmlns="http://www.w3.org/2000/svg"
 width="512.000000pt" height="512.000000pt" viewBox="0 0 512.000000 512.000000"
 preserveAspectRatio="xMidYMid meet">
<metadata>
Created by potrace 1.16, written by Peter Selinger 2001-2019
</metadata>
<g transform="translate(0.000000,512.000000) scale(0.100000,-0.100000)"
fill="#000000" stroke="none">
<path d="M2240 5105 c-389 -48 -766 -188 -1091 -404 -504 -335 -871 -825
-1043 -1395 -41 -132 -81 -333 -96 -468 -13 -125 -13 -431 0 -556 108 -1014
825 -1880 1804 -2176 132 -41 333 -81 468 -96 125 -13 431 -13 556 0 592 63
1141 332 1563 766 289 299 494 645 613 1038 74 243 106 468 106 746 0 208 -10
324 -46 503 -46 236 -118 445 -228 661 -67 132 -195 336 -211 336 -6 0 -167
-157 -360 -350 l-349 -349 164 -3 165 -3 0 -70 0 -70 -240 -3 -240 -2 -708
-708 -709 -707 -279 285 -279 285 459 460 c413 413 460 464 463 495 3 32 6 35
38 38 28 3 50 18 108 75 l73 72 -108 5 -108 5 0 70 0 70 185 3 185 2 73 73 73
72 -258 5 -258 5 0 70 0 70 335 3 335 2 425 425 425 425 286 -286 286 -286 46
52 c42 46 47 57 47 98 l0 47 -238 237 -237 238 -49 0 -48 0 -137 -134 -136
-135 -115 75 c-120 78 -320 181 -453 234 -189 74 -453 138 -659 160 -131 14
-469 11 -598 -5z m272 -832 c38 -37 68 -72 68 -78 0 -5 -90 -100 -200 -210
l-199 -200 19 -57 c43 -126 43 -311 -1 -441 -80 -240 -283 -426 -524 -483 -90
-21 -240 -21 -330 0 -261 61 -480 280 -541 541 -21 90 -21 240 0 330 49 207
196 391 391 485 104 51 197 72 315 72 193 0 359 -66 503 -201 l48 -45 177 177
c97 97 184 177 192 177 8 0 45 -30 82 -67z m-852 -1955 c30 -6 59 -13 63 -15
5 -3 -17 -32 -49 -64 l-58 -59 -94 0 c-169 0 -303 -53 -416 -166 -223 -224
-223 -584 0 -808 110 -110 247 -166 404 -166 157 0 294 56 404 166 91 92 166
248 166 348 0 21 7 27 40 36 22 6 55 24 74 40 33 29 34 29 39 9 9 -34 -11
-185 -34 -252 -80 -240 -283 -426 -524 -483 -90 -21 -240 -21 -330 0 -261 61
-480 280 -541 541 -21 90 -21 240 0 330 49 208 197 391 391 485 154 74 290 91
465 58z m2595 -333 l0 -70 -765 0 -765 0 -3 59 c-2 32 -1 65 2 72 5 12 130 14
768 12 l763 -3 0 -70z m-2610 -345 l139 -140 -49 -51 c-79 -80 -103 -89 -250
-89 l-125 0 0 125 c0 96 4 134 16 158 15 30 112 137 124 137 3 0 68 -63 145
-140z m2310 45 l0 -70 -615 0 -615 0 -3 59 c-2 32 -1 65 2 72 5 12 107 14 618
12 l613 -3 0 -70z m300 -300 l0 -70 -765 0 -765 0 -3 59 c-2 32 -1 65 2 72 5
12 130 14 768 12 l763 -3 0 -70z"/>
<path d="M1355 4061 c-93 -26 -179 -78 -249 -148 -223 -223 -223 -583 0 -807
224 -223 584 -223 808 0 118 118 171 256 164 429 -2 55 -7 106 -12 114 -6 9
-77 -55 -265 -243 -141 -141 -263 -256 -271 -256 -16 0 -480 459 -480 475 0
16 133 145 150 145 7 0 85 -71 172 -157 l158 -158 212 212 211 211 -54 51
c-62 59 -159 113 -245 135 -81 21 -222 20 -299 -3z"/>
</g>
</svg>
